<svg xmlns="http://www.w3.org/2000/svg" viewBox="0 0 275.95 300.25"><defs><style>.cls-1{fill:#fff;}.cls-1,.cls-2{stroke:#000;}.cls-1,.cls-2,.cls-4{stroke-miterlimit:10;}.cls-2,.cls-4{fill:none;}.cls-3{font-size:24px;}.cls-3,.cls-5{font-family:MyriadPro-Regular, Myriad Pro;}.cls-4{stroke:#e90000;}.cls-5{font-size:21px;}.cls-6{letter-spacing:0.01em;}.cls-7{letter-spacing:-0.01em;}.cls-8{letter-spacing:-0.01em;}.cls-9{letter-spacing:0em;}</style></defs><title>Asset 1</title><g id="Layer_2" data-name="Layer 2"><g id="Layer_1-2" data-name="Layer 1"><circle class="cls-1" cx="46.26" cy="36.54" r="27.56"/><circle class="cls-1" cx="46.26" cy="137.63" r="27.56"/><circle class="cls-1" cx="46.26" cy="238.72" r="27.56"/><line class="cls-2" x1="73.82" y1="36.54" x2="223.25" y2="137.63"/><line class="cls-2" x1="73.82" y1="137.63" x2="195.69" y2="137.63"/><line class="cls-2" x1="73.82" y1="238.72" x2="223.25" y2="137.63"/><circle class="cls-1" cx="223.25" cy="137.63" r="27.56"/><text class="cls-3" transform="translate(33.72 44.59)">X1</text><text class="cls-3" transform="translate(33.72 145.59)">X1</text><text class="cls-3" transform="translate(33.72 246.59)">X1</text><text class="cls-3" transform="translate(110.22 58.09)">W1</text><text class="cls-3" transform="translate(110.22 132.09)">W2</text><text class="cls-3" transform="translate(110.22 189.09)">W3</text><text class="cls-3" transform="translate(215.47 147.59)">Z</text><rect class="cls-4" x="4" y="0.5" width="86.5" height="276.5"/><rect class="cls-4" x="177.91" y="87.08" width="86.5" height="101.09"/><text class="cls-5" transform="translate(0 295)"><tspan class="cls-6">I</tspan><tspan x="5.23" y="0">nput l</tspan><tspan class="cls-7" x="56.76" y="0">a</tspan><tspan class="cls-8" x="66.72" y="0">y</tspan><tspan x="76.4" y="0">er</tspan></text><text class="cls-5" transform="translate(166 206.16)"><tspan class="cls-9">O</tspan><tspan x="14.53" y="0">utput l</tspan><tspan class="cls-7" x="72.93" y="0">a</tspan><tspan class="cls-8" x="82.89" y="0">y</tspan><tspan x="92.57" y="0">er</tspan></text></g></g></svg>